<svg width="72" height="133" viewBox="0 0 72 133" fill="none" xmlns="http://www.w3.org/2000/svg">
<path d="M36.2712 97.5V0" stroke="url(#paint0_linear_2_150)"/>
<g opacity="0.1" filter="url(#filter0_f_2_150)">
<circle cx="12" cy="12" r="12" transform="matrix(1 0 0 -1 24 108.271)" fill="#9947FE"/>
</g>
<path d="M25.0535 98.5392C24.8445 98.9883 25.2849 99.4223 25.7327 99.2203C25.8297 99.1754 25.9044 99.1005 25.9492 99.0032C26.1507 98.5542 25.7178 98.1201 25.27 98.3222C25.1729 98.3671 25.0983 98.442 25.0535 98.5392Z" fill="#9947FE" fill-opacity="0.4"/>
<path d="M33.8002 93.7619C34.0018 94.2109 33.5689 94.645 33.121 94.4429C33.024 94.398 32.9494 94.3232 32.9046 94.2259C32.6956 93.7769 33.136 93.3428 33.5838 93.5449C33.6808 93.5898 33.7555 93.6646 33.8002 93.7619Z" fill="#9947FE"/>
<path d="M31.9492 104.539C32.1507 104.988 31.7178 105.422 31.27 105.22C31.1729 105.175 31.0983 105.101 31.0535 105.003C30.8445 104.554 31.2849 104.12 31.7327 104.322C31.8297 104.367 31.9044 104.442 31.9492 104.539Z" fill="#9947FE" fill-opacity="0.8"/>
<path d="M42.949 106.539C43.1511 106.988 42.717 107.422 42.268 107.22C42.1707 107.175 42.0959 107.101 42.051 107.003C41.8489 106.554 42.283 106.12 42.732 106.322C42.8293 106.367 42.9041 106.442 42.949 106.539Z" fill="#9947FE" fill-opacity="0.4"/>
<path d="M44.0535 98.5392C43.8445 98.9883 44.2849 99.4223 44.7327 99.2203C44.8298 99.1754 44.9044 99.1005 44.9492 99.0032C45.1507 98.5542 44.7178 98.1201 44.2699 98.3222C44.1729 98.3671 44.0983 98.442 44.0535 98.5392Z" fill="#9947FE" fill-opacity="0.3"/>
<path d="M40.0535 89.5392C39.8445 89.9883 40.2849 90.4223 40.7327 90.2203C40.8297 90.1754 40.9044 90.1005 40.9492 90.0032C41.1507 89.5542 40.7178 89.1201 40.27 89.3222C40.1729 89.3671 40.0983 89.442 40.0535 89.5392Z" fill="#9947FE" fill-opacity="0.4"/>
<path d="M26.0535 87.5392C25.8445 87.9883 26.2849 88.4223 26.7327 88.2203C26.8297 88.1754 26.9044 88.1005 26.9492 88.0032C27.1507 87.5542 26.7178 87.1201 26.27 87.3222C26.1729 87.3671 26.0983 87.442 26.0535 87.5392Z" fill="#9947FE" fill-opacity="0.4"/>
<defs>
<filter id="filter0_f_2_150" x="0" y="60.2712" width="72" height="72" filterUnits="userSpaceOnUse" color-interpolation-filters="sRGB">
<feFlood flood-opacity="0" result="BackgroundImageFix"/>
<feBlend mode="normal" in="SourceGraphic" in2="BackgroundImageFix" result="shape"/>
<feGaussianBlur stdDeviation="12" result="effect1_foregroundBlur_2_150"/>
</filter>
<linearGradient id="paint0_linear_2_150" x1="36.7713" y1="97.5" x2="36.7713" y2="0.499997" gradientUnits="userSpaceOnUse">
<stop offset="0.144231" stop-color="#9A45FF"/>
<stop offset="0.513413" stop-color="#1AFC9C"/>
<stop offset="0.942308" stop-color="#1AFC9C" stop-opacity="0"/>
</linearGradient>
</defs>
</svg>
